<svg height="48" width="48" xmlns="http://www.w3.org/2000/svg" xmlns:xlink="http://www.w3.org/1999/xlink"><defs><radialGradient cx="29.288" cy="15.721" fx="29.158" fy="15.756" gradientUnits="userSpaceOnUse" id="d" r="8.902" xlink:href="#a"/><radialGradient cx="25.053" cy="39.593" fx="25.053" fy="39.593" gradientTransform="matrix(1.25 0 0 1.25 -6.48 -13.372)" gradientUnits="userSpaceOnUse" id="e" r="15.757"><stop offset="0" stop-color="#777"/><stop offset="1"/></radialGradient><radialGradient cx="24.714" cy="38.571" fx="24.714" fy="38.571" gradientTransform="matrix(1 0 0 .33333 0 25.714)" gradientUnits="userSpaceOnUse" id="c" r="19.714" xlink:href="#b"/><linearGradient id="a"><stop offset="0" stop-color="#fffcde"/><stop offset=".645" stop-color="#f6e76a"/><stop offset="1" stop-color="#ffb738"/></linearGradient><linearGradient id="b"><stop offset="0"/><stop offset="1" stop-opacity="0"/></linearGradient></defs><path d="M44.429 38.571a19.714 6.571 0 11-39.429 0 19.714 6.571 0 1139.429 0z" style="marker:none" opacity=".532" color="#000" fill="url(#c)" fill-rule="evenodd" overflow="visible"/><path d="M39.775 19.009a8.662 8.662 0 11-17.324 0 8.662 8.662 0 1117.324 0z" style="marker:none" transform="translate(-40.547 -16.492) scale(2.08314)" overflow="visible" stroke-linejoin="round" stroke-linecap="round" stroke-width=".48" stroke="#9c8c0a" fill-rule="evenodd" fill="url(#d)" color="#000"/><path d="M41.414 23.105a17.149 17.149 0 11-34.298 0 17.149 17.149 0 1134.298 0z" style="marker:none" opacity=".677" color="#000" fill="none" stroke="#fff" stroke-linecap="round" stroke-linejoin="round" overflow="visible"/><path d="M37.285 24.72c-3.017 5.225-6.544 8.99-12.823 8.99-6.1 0-10.565-4.34-13.352-9.167 2.55 3.056 6.283 6.567 13.087 6.567 8.13 0 9.552-2.907 13.088-6.39z" style="marker:none" opacity=".36" color="#000" fill="#fff" overflow="visible"/><path d="M37.285 24.013c-3.017 5.225-6.544 8.99-12.823 8.99-6.1 0-10.565-4.34-13.352-9.167 2.55 3.056 6.283 6.566 13.087 6.566 8.13 0 9.552-2.906 13.088-6.39z" fill="url(#e)"/><path d="M21.752 17.714c0 2.5-1.125 4.5-2.5 4.5s-2.625-2-2.625-4.5 1.125-4.5 2.5-4.5 2.5 2 2.5 4.5h.125zm9.29 0c0 2.5-1.125 4.5-2.5 4.5s-2.5-2-2.5-4.5 1.125-4.5 2.5-4.5 2.5 2 2.5 4.5z" opacity=".36" fill="#fff"/><path d="M21.752 17.09c0 2.5-1.125 4.5-2.5 4.5s-2.5-2-2.5-4.5 1.125-4.5 2.5-4.5 2.5 2 2.5 4.5zm9.29 0c0 2.5-1.125 4.5-2.5 4.5s-2.5-2-2.5-4.5 1.125-4.5 2.5-4.5 2.5 2 2.5 4.5z"/></svg>